<svg version="1.1" xmlns="http://www.w3.org/2000/svg" xmlns:xlink="http://www.w3.org/1999/xlink" display="none">
	<defs>
		<g id="icn-18-car">
			<path xmlns="http://www.w3.org/2000/svg" fill-rule="evenodd" d="M9.01070358,16.75 C9.01233469,16.7914642 9.01315789,16.833136 9.01315789,16.875 C9.01315789,18.6008898 7.61404774,20 5.88815789,20 C4.16226805,20 2.76315789,18.6008898 2.76315789,16.875 C2.76315789,16.833136 2.7639811,16.7914642 2.76561221,16.75 L0,16.75 L0,11.75 C0,11.1977153 0.44771525,10.75 1,10.75 L3.94060272,10.75 L4.7962646,9.06818182 L0.763157895,9.06818182 C0.48701552,9.06818182 0.263157895,8.84432419 0.263157895,8.56818182 C0.263157895,8.29203944 0.48701552,8.06818182 0.763157895,8.06818182 L5.30503653,8.06818182 L6.36883239,5.97727273 L2.28947368,5.97727273 C2.01333131,5.97727273 1.78947368,5.7534151 1.78947368,5.47727273 C1.78947368,5.20113035 2.01333131,4.97727273 2.28947368,4.97727273 L7.28947368,4.97727273 L16.6487115,4.97727273 L19.5857131,10.75 L23,10.75 C23.5522847,10.75 24,11.1977153 24,11.75 L24,16.75 L21.5252492,16.75 C21.5268803,16.7914642 21.5277035,16.833136 21.5277035,16.875 C21.5277035,18.6008898 20.1285934,20 18.4027035,20 C16.6768137,20 15.2777035,18.6008898 15.2777035,16.875 C15.2777035,16.833136 15.2785267,16.7914642 15.2801578,16.75 L9.01070358,16.75 Z M5.06258707,10.75 L13.8092338,10.75 L11.4524226,5.97727273 L7.49081674,5.97727273 L5.06258707,10.75 Z M18.4637287,10.75 L16.0354991,5.97727273 L12.5677012,5.97727273 L14.9245124,10.75 L18.4637287,10.75 Z M15.4869749,15.7457053 C15.9387462,14.5759638 17.0740513,13.7462241 18.4031525,13.7462241 C19.7322536,13.7462241 20.8675587,14.5759638 21.31933,15.7457053 L23,15.7457053 L23,11.7457053 L1,11.7457053 L1,15.7457053 L2.97350141,15.7457053 C3.42527272,14.5759638 4.5605778,13.7462241 5.88967896,13.7462241 C7.21878011,13.7462241 8.35408519,14.5759638 8.8058565,15.7457053 L15.4869749,15.7457053 Z M18.4027035,18.5 C19.3001663,18.5 20.0277035,17.7724627 20.0277035,16.875 C20.0277035,15.9775373 19.3001663,15.25 18.4027035,15.25 C17.5052408,15.25 	16.7777035,15.9775373 16.7777035,16.875 C16.7777035,17.7724627 17.5052408,18.5 18.4027035,18.5 Z M5.88815789,18.5 C6.78562061,18.5 7.51315789,17.7724627 7.51315789,16.875 C7.51315789,15.9775373 6.78562061,15.25 5.88815789,15.25 C4.99069518,15.25 4.26315789,15.9775373 4.26315789,16.875 C4.26315789,17.7724627 4.99069518,18.5 5.88815789,18.5 Z" id="Combined-Shape"></path>
		</g>
		<g id="icn-18-express-car">
			<g id="delivery">
				<rect id="Rectangle-Copy-3" fill="#FFFFFF" opacity="0" x="0" y="0" width="18" height="18"></rect>
				<path d="M16,12 L14.561,12 C14.215,11.508 13.646,11.183 13,11.183 C12.354,11.183 11.785,11.508 11.439,12 L6.722,12 C6.375,11.405 5.736,11 5,11 C4.264,11 3.625,11.405 3.278,12 L2,12 L2,8 L3.5,8 C3.729,8 3.93,7.844 3.985,7.621 L4.891,4 L9,4 L9,8 L13.5,8 L14.5,8 C15.327,8 16,8.673 16,9.5 L16,12 Z M13,14 C12.499,14 12.092,13.593 12.092,13.092 C12.092,12.591 12.499,12.183 13,12.183 C13.501,12.183 13.908,12.591 13.908,13.092 C13.908,13.593 13.501,14 13,14 L13,14 Z M5,14 C4.448,14 4,13.551 4,13 C4,12.449 4.448,12 5,12 C5.552,12 6,12.449 6,13 C6,13.551 5.552,14 5,14 L5,14 Z M12.859,7 L10,7 L10,4 L12.109,4 L12.859,7 Z M14.5,7 L13.891,7 L12.985,3.379 C12.93,3.156 12.729,3 12.5,3 L4.5,3 C4.271,3 4.07,3.156 4.015,3.379 L3.109,7 L1.5,7 C1.224,7 1,7.224 1,7.5 L1,12.5 C1,12.776 1.224,13 1.5,13 L3,13 C3,14.103 3.897,15 5,15 C6.103,15 7,14.103 7,13 L11.102,13 C11.1,13.031 11.092,13.061 11.092,13.092 C11.092,14.144 11.948,15 13,15 C14.052,15 14.908,14.144 14.908,13.092 C14.908,13.061 14.9,13.031 14.898,13 L16.5,13 C16.776,13 17,12.776 17,12.5 L17,9.5 C17,8.122 15.879,7 14.5,7 L14.5,7 Z" id="Fill-1" fill="#000000"></path>
			</g>
		</g>
		<g id="icn-18-history">
			<path fill="#000" fill-rule="evenodd" d="M9 0c3.859 0 7 3.141 7 7s-3.141 7-7 7a6.956 6.956 0 0 1-4.946-2.047.5.5 0 0 1 .707-.707A5.96 5.96 0 0 0 9 13c3.309 0 6-2.691 6-6s-2.691-6-6-6-6 2.691-6 6c0 .312.029.622.076.929l1.269-1.281a.5.5 0 1 1 .711.704L2.955 9.473a.504.504 0 0 1-.711 0L.145 7.352a.5.5 0 1 1 .71-.704l1.206 1.219A7.161 7.161 0 0 1 2 7c0-3.859 3.141-7 7-7zm.521 4v3.224l2.467 1.553-.533.846-2.934-1.847V4h1z"/>
		</g>
		<g id="icn-18-pre-fill">
			<path xmlns="http://www.w3.org/2000/svg" fill="#000" fill-rule="evenodd" d="M13.854 13.146L1.707 1h7.791a.5.5 0 1 0 0-1h-9a.5.5 0 0 0-.5.5v9a.5.5 0 0 0 1 0V1.708l12.148 12.146a.498.498 0 0 0 .707 0 .5.5 0 0 0 0-.707"/>
		</g>
		<g id="heart-filled-18">
			<path xmlns="http://www.w3.org/2000/svg" fill-rule="evenodd" d="M8.95 15.5l-.353-.158c-.296-.133-1.84-1.151-3.265-2.251l-.257-.196C3.645 11.809 1.481 10.17 1.5 7.42c.022-2.868 1.73-4.329 3.32-4.74a4.479 4.479 0 0 1 4.2 1.094c1.203-1.106 2.812-1.534 4.31-1.117 1.967.55 3.152 2.318 3.17 4.73.02 2.883-1.99 4.411-3.457 5.528-.898.688-3.297 2.33-3.728 2.467l-.366.118z"/>
		</g>
		<g id="heart-18">
			<path xmlns="http://www.w3.org/2000/svg" fill-rule="evenodd" d="M5.933 3.538c-.287 0-.577.036-.864.11-1.23.317-2.55 1.476-2.569 3.78-.015 2.247 1.757 3.593 3.181 4.672l.261.199c1.43 1.105 2.862 2.034 3.065 2.133h.002c.273-.114 2.342-1.48 3.427-2.31 1.444-1.1 3.08-2.344 3.063-4.726-.013-1.942-.925-3.354-2.438-3.778-1.292-.354-2.697.103-3.673 1.206l-.384.434-.374-.443a3.523 3.523 0 0 0-2.697-1.277zM8.95 15.5l-.352-.158c-.296-.133-1.84-1.151-3.265-2.251l-.257-.196C3.645 11.809 1.481 10.17 1.5 7.42c.022-2.868 1.73-4.329 3.32-4.74a4.479 4.479 0 0 1 4.2 1.094c1.203-1.106 2.812-1.534 4.31-1.117 1.967.55 3.152 2.318 3.17 4.73.02 2.883-1.99 4.411-3.457 5.528-.898.688-3.297 2.33-3.728 2.467l-.366.118z"/>
		</g>
		<g id="icn-18-add">
			<path d="M9 2a.5.5 0 0 1 .5.5v6h6a.5.5 0 1 1 0 1h-6v6a.5.5 0 1 1-1 0v-6h-6a.5.5 0 0 1 0-1h6v-6A.5.5 0 0 1 9 2z"/>
		</g>
		<g id="icn-add-ptile">
			<path d="M7 0a.5.5 0 0 1 .5.5v6h6a.5.5 0 1 1 0 1h-6v6a.5.5 0 1 1-1 0v-6h-6a.5.5 0 0 1 0-1h6v-6A.5.5 0 0 1 7 0z"/>
		</g>
		<g id="icn-18-article">
			<path xmlns="http://www.w3.org/2000/svg" fill-rule="evenodd" d="M13.5,0 C13.776,0 14,0.224 14,0.5 L14,11.5 C14,12.879 12.879,14 11.5,14 L9.5,14 L3.5,14 L2.5,14 C1.121,14 0,12.879 0,11.5 L0,10.5 C0,10.224 0.224,10 0.5,10 L2,10 L2,0.5 C2,0.224 2.224,0 2.5,0 L13.5,0 Z M13,11.5 L13,1 L3,1 L3,10 L9.5,10 C9.776,10 10,10.224 10,10.5 L10,11.5 C10,12.327 10.673,13 11.5,13 C12.327,13 13,12.327 13,11.5 Z M3.5,13 L9.5,13 L9.512,13 C9.195,12.581 9,12.065 9,11.5 L9,11 L1,11 L1,11.5 C1,12.327 1.673,13 2.5,13 L3.5,13 Z M4.5498,4 C4.2738,4 4.0498,3.776 4.0498,3.5 C4.0498,3.224 4.2738,3 4.5498,3 L7.4498,3 C7.7268,3 7.9498,3.224 7.9498,3.5 C7.9498,3.776 7.7268,4 7.4498,4 L4.5498,4 Z M4.5,6 C4.224,6 4,5.776 4,5.5 C4,5.224 4.224,5 4.5,5 L10.5,5 C10.776,5 11,5.224 11,5.5 C11,5.776 10.776,6 10.5,6 L4.5,6 Z M4.5,8 C4.224,8 4,7.776 4,7.5 C4,7.224 4.224,7 4.5,7 L10.5,7 C10.776,7 11,7.224 11,7.5 C11,7.776 10.776,8 10.5,8 L4.5,8 Z"/>
		</g>
		<g id="icn-18-calendar">
			<path d="M6 2v1h6V2h1v1h3v13H2V3h3V2h1zm9 6H3v7h12V8zm-2 2v3h-3v-3h3zM5 4H3v3h12V4h-2v1h-1V4H6v1H5V4z"/>
		</g>
		<g id="icn-18-card">
			<path xmlns="http://www.w3.org/2000/svg" fill-rule="evenodd" d="M.5 12a.5.5 0 0 1-.5-.5V.5A.5.5 0 0 1 .5 0h15a.5.5 0 0 1 .5.5v11a.5.5 0 0 1-.5.5H.5zM1 3h14V1H1v2zm0 8h14V5H1v6z"/>
		</g>
		<g id="icn-18-caret-down">
			<path xmlns="http://www.w3.org/2000/svg" fill-rule="evenodd" d="M0 0L8 0 4 4z"/>
		</g>
		<g id="icn-18-check-2">
			<path xmlns="http://www.w3.org/2000/svg" fill-rule="evenodd" d="M4.464 12a1 1 0 0 1-.687-.273L.313 8.454A1 1 0 0 1 1.688 7l2.775 2.623L14.311.275a.999.999 0 1 1 1.378 1.45l-10.537 10a.996.996 0 0 1-.688.275"/>
		</g>
		<g id="icn-18-check">
			<path xmlns="http://www.w3.org/2000/svg" fill-rule="evenodd" d="M15.838,0.131258295 C15.634,-0.0557417045 15.318,-0.0407417045 15.131,0.162258295 L4.484,11.7772583 L0.854,8.1462583 C0.658,7.9512583 0.342,7.9512583 0.147,8.1462583 C-0.049,8.3412583 -0.049,8.6582583 0.147,8.8532583 L4.147,12.8532583 C4.24,12.9472583 4.368,13.0002583 4.5,13.0002583 L4.511,13.0002583 C4.647,12.9972583 4.776,12.9382583 4.869,12.8382583 L15.869,0.838258295 C16.055,0.634258295 16.042,0.318258295 15.838,0.131258295"/>
		</g>
		<g id="icn-18-clock">
			<path xmlns="http://www.w3.org/2000/svg" fill-rule="evenodd" d="M10.667 21.333c-1.47 0-2.853-.281-4.15-.844a10.836 10.836 0 0 1-3.387-2.285 10.836 10.836 0 0 1-2.286-3.388A10.315 10.315 0 0 1 0 10.666c0-1.468.281-2.852.844-4.149A10.836 10.836 0 0 1 3.13 3.13 10.836 10.836 0 0 1 6.517.844 10.315 10.315 0 0 1 10.667 0c1.469 0 2.852.281 4.15.844a10.836 10.836 0 0 1 3.387 2.286c.96.96 1.723 2.09 2.285 3.387.563 1.297.844 2.68.844 4.15 0 1.469-.281 2.852-.844 4.15a10.836 10.836 0 0 1-2.285 3.387 10.836 10.836 0 0 1-3.388 2.285c-1.297.563-2.68.844-4.15.844zm0-19.997a9.2 9.2 0 0 0-3.634.727 9.422 9.422 0 0 0-4.97 4.97 9.2 9.2 0 0 0-.727 3.634 9.2 9.2 0 0 0 .727 3.633 9.422 9.422 0 0 0 4.97 4.97 9.2 9.2 0 0 0 3.634.727 9.2 9.2 0 0 0 3.633-.727 9.422 9.422 0 0 0 4.97-4.97 9.2 9.2 0 0 0 .727-3.633 9.2 9.2 0 0 0-.727-3.634 9.422 9.422 0 0 0-4.97-4.97 9.2 9.2 0 0 0-3.633-.727zm0 4.665c0-.187.066-.347.199-.48a.655.655 0 0 1 .938 0c.133.133.199.293.199.48v6.002H7.338a.655.655 0 0 1-.48-.2.655.655 0 0 1 0-.937.655.655 0 0 1 .48-.2h3.329V6.002z"/>
		</g>
		<g id="icn-18-orders-clock">
			<path fill="#000" d="M9 17a7.736 7.736 0 0 1-3.112-.633 8.127 8.127 0 0 1-2.54-1.714 8.127 8.127 0 0 1-1.715-2.54A7.736 7.736 0 0 1 1 9c0-1.102.211-2.14.633-3.112a8.127 8.127 0 0 1 1.714-2.54 8.127 8.127 0 0 1 2.54-1.715A7.736 7.736 0 0 1 9 1c1.102 0 2.14.211 3.112.633.973.422 1.82.993 2.54 1.714a8.127 8.127 0 0 1 1.715 2.54C16.789 6.862 17 7.899 17 9c0 1.102-.211 2.14-.633 3.112a8.127 8.127 0 0 1-1.714 2.54 8.127 8.127 0 0 1-2.54 1.715A7.736 7.736 0 0 1 9 17zM9 2.002a6.9 6.9 0 0 0-2.725.545 7.066 7.066 0 0 0-3.728 3.728A6.9 6.9 0 0 0 2.002 9a6.9 6.9 0 0 0 .545 2.725 7.066 7.066 0 0 0 3.728 3.728A6.9 6.9 0 0 0 9 15.998a6.9 6.9 0 0 0 2.725-.545 7.066 7.066 0 0 0 3.728-3.728A6.9 6.9 0 0 0 15.998 9a6.9 6.9 0 0 0-.545-2.725 7.066 7.066 0 0 0-3.728-3.728A6.9 6.9 0 0 0 9 2.002zm0 3.5c0-.142.05-.262.15-.361.1-.1.213-.15.342-.15.141 0 .261.05.36.15.1.1.15.22.15.36v4.501H6.503c-.14 0-.26-.05-.36-.15a.491.491 0 0 1 0-.703c.1-.1.22-.149.36-.149H9V5.501z"/>
		</g>
		<g id="icn-18-down-arrow">
			<path xmlns="http://www.w3.org/2000/svg" fill-rule="evenodd" d="M14.64625,0.14625 L7.99925,6.79225 L1.35325,0.14625 C1.15825,-0.04875 0.84125,-0.04875 0.64625,0.14625 C0.45125,0.34125 0.45125,0.65825 0.64625,0.85325 L7.64625,7.85325 C7.74425,7.95125 7.87225,8.00025 7.99925,8.00025 C8.12725,8.00025 8.25525,7.95125 8.35325,7.85325 L15.35325,0.85325 C15.54825,0.65825 15.54825,0.34125 15.35325,0.14625 C15.15825,-0.04875 14.84125,-0.04875 14.64625,0.14625 Z"/>
		</g>
		<g id="icn-18-exclamation">
			<path xmlns="http://www.w3.org/2000/svg" fill-rule="evenodd" d="M9 1c4.411 0 8 3.589 8 8s-3.589 8-8 8-8-3.589-8-8 3.589-8 8-8zm0 1C5.141 2 2 5.141 2 9s3.141 7 7 7 7-3.141 7-7-3.141-7-7-7zm0 10a.5.5 0 1 1 0 1 .5.5 0 0 1 0-1zm.5-7v6h-1V5h1z"/>
		</g>
		<g id="icn-18-express-pickup">
			<path xmlns="http://www.w3.org/2000/svg" fill-rule="evenodd" d="M10.237,2.8319 C10.847,2.3129 11.638,1.9999 12.5,1.9999 C14.43,1.9999 16,3.5699 16,5.4999 C16,7.2609 14.693,8.7219 12.999,8.9649 L12.999,11.9999 L7,11.9999 L7,8.9999 L6,8.9999 L6,11.9999 L0,11.9999 L0,2.9999 L2.819,2.9999 L6.5,-0.0001 L10.237,2.8319 Z M11.999,8.9639 C10.305,8.7209 9,7.2599 9,5.4999 C9,4.7939 9.21,4.1359 9.572,3.5849 L6.5,1.2749 L3.18,4.0379 L0.999,4.0379 L0.999,10.9999 L5,10.9999 L5,7.9999 L8,7.9999 L8,10.9999 L11.999,10.9999 L11.999,8.9639 Z M12.5,2.9999 C11.121,2.9999 10,4.1209 10,5.4999 C10,6.8789 11.121,7.9999 12.5,7.9999 C13.879,7.9999 15,6.8789 15,5.4999 C15,4.1209 13.879,2.9999 12.5,2.9999 Z M13,5.5 L14,5.5 L14,6.5 L12,6.5 L12,4 L13,4 L13,5.5 Z M11.5,1 L11.5,2.48689958e-14 L13.5,2.48689958e-14 L13.5,1 L11.5,1 Z"/>
		</g>
		<g id="icn-18-heart">
			<path d="M5.933 3.538c-.287 0-.577.036-.864.11-1.23.317-2.55 1.476-2.569 3.78-.015 2.247 1.757 3.593 3.181 4.672l.261.199c1.43 1.105 2.862 2.034 3.065 2.133h.002c.273-.114 2.342-1.48 3.427-2.31 1.444-1.1 3.08-2.344 3.063-4.726-.013-1.942-.925-3.354-2.438-3.778-1.292-.354-2.697.103-3.673 1.206l-.384.434-.374-.443a3.523 3.523 0 0 0-2.697-1.277zM8.95 15.5l-.352-.158c-.296-.133-1.84-1.151-3.265-2.251l-.257-.196C3.645 11.809 1.481 10.17 1.5 7.42c.022-2.868 1.73-4.329 3.32-4.74a4.479 4.479 0 0 1 4.2 1.094c1.203-1.106 2.812-1.534 4.31-1.117 1.967.55 3.152 2.318 3.17 4.73.02 2.883-1.99 4.411-3.457 5.528-.898.688-3.297 2.33-3.728 2.467l-.366.118z"/>
		</g>
		<g id="icn-heart-header">
			<path d="M9.932 17.667l-.47-.21c-.394-.178-2.453-1.536-4.353-3.003l-.342-.26C2.859 12.745-.025 10.56 0 6.892.03 3.069 2.305 1.121 4.427.574a5.972 5.972 0 0 1 5.598 1.458C11.631.557 13.776-.013 15.772.542c2.624.734 4.204 3.092 4.227 6.308.028 3.843-2.652 5.881-4.608 7.37-1.198.917-4.396 3.107-4.97 3.29l-.489.157zm4.248-5.039c.61-.464.89-.683 1.225-.965 1.773-1.494 2.608-2.88 2.594-4.799-.017-2.37-1.053-3.917-2.763-4.395-1.306-.363-2.743.012-3.857 1.036l-1.37 1.259-1.355-1.276a3.97 3.97 0 0 0-3.728-.977C3.228 2.949 2.02 4.44 2 6.907c-.012 1.683.825 3.068 2.515 4.532.404.35.743.616 1.464 1.163l.353.269c1.312 1.013 3.023 2.195 3.695 2.614.734-.45 3.103-2.053 4.153-2.857z"/>
		</g>
		<g id="icn-18-help">
			<path xmlns="http://www.w3.org/2000/svg" fill-rule="evenodd" d="M8 16c-4.411 0-8-3.589-8-8s3.589-8 8-8 8 3.589 8 8-3.589 8-8 8zM8 1C4.14 1 1 4.141 1 8s3.14 7 7 7 7-3.141 7-7-3.14-7-7-7zm.443 10.92a.5.5 0 1 1-1 0 .5.5 0 0 1 1 0zm1.32-5.736V6.17a1.821 1.821 0 0 0-1.82-1.82c-.79 0-1.486.506-1.73 1.258a.5.5 0 0 1-.95-.31 2.812 2.812 0 0 1 2.68-1.947 2.822 2.822 0 0 1 2.82 2.819 2.825 2.825 0 0 1-2.32 2.775v1.229h-1V7.989h.5a1.82 1.82 0 0 0 1.82-1.805z"/>
		</g>
		<g id="icn-18-home">
			<path xmlns="http://www.w3.org/2000/svg" fill-rule="evenodd" d="M9,12.9980018 L13,12.9980018 L13,7.70100183 L7,1.51600183 L1,7.70100183 L1,12.9980018 L5,12.9980018 L5,10.9980018 C5,9.89500183 5.897,8.99800183 7,8.99800183 C8.103,8.99800183 9,9.89500183 9,10.9980018 L9,12.9980018 Z M14,13.9980018 L8,13.9980018 L8,10.9980018 C8,10.4460018 7.552,9.99800183 7,9.99800183 C6.448,9.99800183 6,10.4460018 6,10.9980018 L6,13.9980018 L0,13.9980018 L0,7.29500183 L7,0.0800018311 L14,7.29500183 L14,13.9980018 Z"/>
		</g>
		<g id="icn-18-info">
			<path xmlns="http://www.w3.org/2000/svg" fill-rule="evenodd" d="M8,16 C3.589,16 0,12.411 0,8 C0,3.589 3.589,0 8,0 C12.411,0 16,3.589 16,8 C16,12.411 12.411,16 8,16 Z M8,1 C4.141,1 1,4.141 1,8 C1,11.859 4.141,15 8,15 C11.859,15 15,11.859 15,8 C15,4.141 11.859,1 8,1 Z M9,6 L9,11 L10,11 L10,12 L7,12 L7,11 L8,11 L8,7 L7.5,7 C7.224,7 7,6.776 7,6.5 C7,6.224 7.224,6 7.5,6 L9,6 Z M8.5,5 C8.224,5 8,4.776 8,4.5 C8,4.224 8.224,4 8.5,4 C8.776,4 9,4.224 9,4.5 C9,4.776 8.776,5 8.5,5 Z"/>
		</g>
		<g id="icn-18-comment">
			<path d="M9 14.004c-.864 0-1.697-.165-2.477-.489l-.401-.168-.397.18-1.328.607.329-.992.188-.57-.417-.435C3.532 11.132 3 9.841 3 8.502 3 5.468 5.692 3 9 3s6 2.468 6 5.502-2.692 5.502-6 5.502M9 2C5.134 2 2 4.911 2 8.502c0 1.662.671 3.178 1.776 4.328-.22.667-1.053 3.17-1.053 3.17s2.91-1.332 3.416-1.562c.873.364 1.842.566 2.861.566 3.866 0 7-2.91 7-6.502C16 4.912 12.866 2 9 2"/>
		</g>
		<g id="icn-18-left-arrow">
			<path xmlns="http://www.w3.org/2000/svg" fill-rule="evenodd" d="M1.207,8.00025 L7.853,1.35425 C8.049,1.15825 8.049,0.84225 7.853,0.64625 C7.658,0.45125 7.342,0.45125 7.146,0.64625 L0.146,7.64625 C-0.049,7.84225 -0.049,8.15825 0.146,8.35425 L7.146,15.35425 C7.244,15.45125 7.372,15.50025 7.5,15.50025 C7.628,15.50025 7.756,15.45125 7.853,15.35425 C8.049,15.15825 8.049,14.84225 7.853,14.64625 L1.207,8.00025 Z"/>
		</g>
		<g id="icn-18-menu">
			<path d="M1 8.001a1 1 0 1 1 0-2h12a1 1 0 0 1 0 2H1zm0 6a1 1 0 0 1 0-2h12a1 1 0 0 1 0 2H1zm0-12a1 1 0 0 1-1-1V1a1 1 0 0 1 1-1h12a1 1 0 0 1 1 1v.001a1 1 0 0 1-1 1H1z"/>
		</g>
		<g id="icn-18-minus">
			<rect width="14" height="1" y=".5" rx=".5"/>
		</g>
		<g id="icn-18-mobile">
			<path xmlns="http://www.w3.org/2000/svg" fill-rule="evenodd" d="M11.5,16 L0.5,16 C0.224,16 0,15.776 0,15.5 L0,0.5 C0,0.224 0.224,0 0.5,0 L11.5,0 C11.776,0 12,0.224 12,0.5 L12,15.5 C12,15.776 11.776,16 11.5,16 Z M1,15 L11,15 L11,1 L1,1 L1,15 Z M2,12 L2,2 L10,2 L10,12 L2,12 Z M3,11 L9,11 L9,3 L3,3 L3,11 Z M6.4999,13.5002 C6.4999,13.7762 6.2759,14.0002 5.9999,14.0002 C5.7239,14.0002 5.4999,13.7762 5.4999,13.5002 C5.4999,13.2242 5.7239,13.0002 5.9999,13.0002 C6.2759,13.0002 6.4999,13.2242 6.4999,13.5002 Z"/>
		</g>
		<g id="icn-18-money-service">
			<path d="M14.5 3a.5.5 0 0 1 .492.41L15 3.5V5h1.5a.5.5 0 0 1 .492.41L17 5.5v9a.5.5 0 0 1-.41.492L16.5 15h-13a.5.5 0 0 1-.492-.41L3 14.5V13H1.5a.5.5 0 0 1-.492-.41L1 12.5v-9a.5.5 0 0 1 .41-.492L1.5 3h13zM16 6h-1v6.5a.5.5 0 0 1-.41.492L14.5 13H4v1h12V6zm-2-2H2v8h12V4zm-5.884.997c.126 0 .223.112.223.237v.43c.389.057.75.182 1.056.418.112.042.112.208.112.277 0 .056 0 .181-.112.293-.055.055-.166.125-.25.125-.125 0-.181-.056-.208-.098-.153-.139-.362-.223-.598-.264v1.237c.639.196 1.362.5 1.362 1.418.028.32-.083.64-.32.877-.166.194-.5.403-1.042.459v.36c0 .126-.097.236-.223.236h-.222c-.125 0-.222-.11-.222-.236v-.389c-.473-.07-.918-.223-1.252-.514-.041-.056-.125-.125-.125-.264 0-.126.084-.209.125-.25a.413.413 0 0 1 .25-.111c.126 0 .209.069.223.082.167.14.43.306.779.377V8.25c-.668-.195-1.335-.445-1.335-1.307 0-.696.556-1.197 1.335-1.293v-.417c0-.125.097-.237.222-.237h.222zm.224 3.448v1.25a.897.897 0 0 0 .225-.069l.038-.011a.016.016 0 0 1 .007-.005c.223-.11.353-.294.354-.542a.5.5 0 0 0-.154-.371.959.959 0 0 0-.31-.188 1.421 1.421 0 0 0-.16-.064zm-.668-2.058c-.348.07-.584.279-.584.557 0 .263.222.402.584.527V6.388z"/>
		</g>
		<g id="icn-18-pause">
			<path xmlns="http://www.w3.org/2000/svg" fill-rule="evenodd" d="M.5 0a.5.5 0 0 1 .5.5v7a.5.5 0 0 1-1 0v-7A.5.5 0 0 1 .5 0zm5 0a.5.5 0 0 1 .5.5v7a.5.5 0 0 1-1 0v-7a.5.5 0 0 1 .5-.5z"/>
		</g>
		<g id="icn-18-play">
			<path xmlns="http://www.w3.org/2000/svg" fill-rule="evenodd" d="M0,0.934618451 C0,0.212371479 0.774468985,-0.236000188 1.38832104,0.130722112 L11.5468803,6.19610366 C12.1510399,6.55722715 12.1510399,7.44277285 11.5468803,7.80389634 L1.38832104,13.8692779 C0.774468985,14.2360002 0,13.7876285 0,13.0653815 L0,0.934618451 Z"/>
		</g>
		<g id="icn-18-print">
			<path xmlns="http://www.w3.org/2000/svg" fill-rule="evenodd" d="M11.0002,10.0004 L11.5002,10.0004 L13.0002,10.0004 L13.0002,4.0004 L11.0002,4.0004 L3.0002,4.0004 L1.0002,4.0004 L1.0002,10.0004 L2.5002,10.0004 L2.9992,10.0004 L2.5002,10.0004 L2.5002,7 L11.5002,7 L11.5002,10.0004 L11.0002,10.0004 Z M11.5002,11.0004 L11.5002,14.0004 L2.5002,14.0004 L2.5002,11.0004 L1.0002,11.0004 C0.4482,11.0004 0.0002,10.5524 0.0002,10.0004 L0.0002,4.0004 C0.0002,3.4484 0.4482,3.0004 1.0002,3.0004 L2.9992,3.0004 L2.9992,2.1034 L5.1002,0.0004 L11.0002,0.0004 L11.0002,3.0004 L13.0002,3.0004 C13.5522,3.0004 14.0002,3.4484 14.0002,4.0004 L14.0002,10.0004 C14.0002,10.5524 13.5522,11.0004 13.0002,11.0004 L11.5002,11.0004 Z M10.0002,3.0004 L10.0002,1.0014 L5.5142,1.0014 L3.9992,2.5174 L3.9992,3.0004 L4.0002,3.0004 L10.0002,3.0004 Z M3.5002,13.0004 L10.5002,13.0004 L10.5002,8 L3.5002,8 L3.5002,13.0004 Z M3.0002,5.5004 C3.0002,5.7764 2.7762,6.0004 2.5002,6.0004 C2.2242,6.0004 2.0002,5.7764 2.0002,5.5004 C2.0002,5.2244 2.2242,5.0004 2.5002,5.0004 C2.7762,5.0004 3.0002,5.2244 3.0002,5.5004 L3.0002,5.5004 Z M5.5002,10.0004 C5.2242,10.0004 5.0002,9.7764 5.0002,9.5004 C5.0002,9.2244 5.2242,9.0004 5.5002,9.0004 L8.5002,9.0004 C8.7762,9.0004 9.0002,9.2244 9.0002,9.5004 C9.0002,9.7764 8.7762,10.0004 8.5002,10.0004 L5.5002,10.0004 Z M5.5002,12.0004 C5.2242,12.0004 5.0002,11.7764 5.0002,11.5004 C5.0002,11.2244 5.2242,11.0004 5.5002,11.0004 L8.5002,11.0004 C8.7762,11.0004 9.0002,11.2244 9.0002,11.5004 C9.0002,11.7764 8.7762,12.0004 8.5002,12.0004 L5.5002,12.0004 Z"/>
		</g>
		<g id="icn-18-remove">
			<path xmlns="http://www.w3.org/2000/svg" fill-rule="evenodd" d="M7.707 7l5.646-5.646a.5.5 0 1 0-.707-.708L7 6.293 1.456.75a.5.5 0 0 0-.707.707L6.293 7 .646 12.646A.502.502 0 0 0 1 13.5a.498.498 0 0 0 .353-.146L7 7.707l5.646 5.647a.502.502 0 0 0 .707 0 .5.5 0 0 0 0-.708L7.707 7z"/>
		</g>
		<g id="icn-18-right-arrow">
			<path xmlns="http://www.w3.org/2000/svg" fill-rule="evenodd" d="M1.207,8.00025 L7.853,1.35425 C8.049,1.15825 8.049,0.84225 7.853,0.64625 C7.658,0.45125 7.342,0.45125 7.146,0.64625 L0.146,7.64625 C-0.049,7.84225 -0.049,8.15825 0.146,8.35425 L7.146,15.35425 C7.244,15.45125 7.372,15.50025 7.5,15.50025 C7.628,15.50025 7.756,15.45125 7.853,15.35425 C8.049,15.15825 8.049,14.84225 7.853,14.64625 L1.207,8.00025 Z" transform="matrix(-1 0 0 1 8 0)"/>
		</g>
		<g id="shipping-18">
			<path xmlns="http://www.w3.org/2000/svg" d="M15 13c0 1.103-.897 2-2 2s-2-.897-2-2H7c0 1.103-.897 2-2 2s-2-.897-2-2H1V3h10v3h3.48L17 8.519V13h-2zm-3.732-1c.347-.597.993-1 1.732-1s1.385.403 1.732 1H16v-2h-1.5a.5.5 0 0 1 0-1H16v-.066L14.066 7H11v5h.268zm-4.536 0H10V4H2v8h1.268c.347-.597.993-1 1.732-1s1.385.403 1.732 1zM5 12a1.001 1.001 0 0 0 0 2 1.001 1.001 0 0 0 0-2zm8 0a1.001 1.001 0 0 0 0 2 1.001 1.001 0 0 0 0-2z"/>
		</g>
		<g id="icn-18-search">
			<path d="M6,10 C3.791,10 2,8.209 2,6 C2,3.791 3.791,2 6,2 C8.209,2 10,3.791 10,6 C10,8.209 8.209,10 6,10 M13.707,12.293 L10.887,9.473 C11.585,8.492 12,7.296 12,6 C12,2.686 9.314,0 6,0 C2.686,0 0,2.686 0,6 C0,9.314 2.686,12 6,12 C7.296,12 8.492,11.585 9.473,10.887 L12.293,13.707 C12.488,13.902 12.744,14 13,14 C13.256,14 13.512,13.902 13.707,13.707 C14.098,13.316 14.098,12.684 13.707,12.293"/>
		</g>
		<g id="icn-18-shipping">
			<path xmlns="http://www.w3.org/2000/svg" fill-rule="evenodd" d="M14,10 C14,11.103 13.103,12 12,12 C10.897,12 10,11.103 10,10 L9.5,10 L6,10 C6,11.103 5.103,12 4,12 C2.897,12 2,11.103 2,10 L0,10 L0,0 L10,0 L10,3 L13.48,3 L16,5.519 L16,10 L14,10 Z M10.268,9 C10.615,8.403 11.261,8 12,8 C12.739,8 13.385,8.403 13.732,9 L15,9 L15,7 L13.5,7 C13.224,7 13,6.776 13,6.5 C13,6.224 13.224,6 13.5,6 L15,6 L15,5.934 L13.066,4 L10,4 L10,9 L10.268,9 Z M5.732,9 L9,9 L9,1 L1,1 L1,9 L2.268,9 C2.615,8.403 3.261,8 4,8 C4.739,8 5.385,8.403 5.732,9 L5.732,9 Z M4,9 C3.449,9 3,9.448 3,10 C3,10.552 3.449,11 4,11 C4.551,11 5,10.552 5,10 C5,9.448 4.551,9 4,9 L4,9 Z M12,9 C11.449,9 11,9.448 11,10 C11,10.552 11.449,11 12,11 C12.551,11 13,10.552 13,10 C13,9.448 12.551,9 12,9 L12,9 Z"/>
		</g>
		<g id="icn-20-unlimited-new">
			<path xmlns="http://www.w3.org/2000/svg" d="M10.505 11H8.857L5.648 5.736V11H4V3h1.648l3.215 5.275V3h1.642v8zm6.315-3.467h-3.165v2.143h3.714V11h-5.363V3h5.352v1.335h-3.703v1.907h3.165v1.291zm7.808 1.16L25.705 3h1.643l-1.775 8h-1.659l-1.302-5.352L21.31 11h-1.66l-1.774-8h1.642l1.083 5.681L21.919 3h1.396l1.313 5.692z"/>
		</g>
		<g id="icn-18-spark">
			<path xmlns="http://www.w3.org/2000/svg" fill-rule="evenodd" d="M6.994 0c-.596 0-1.069.333-1.069.736l.368 4.112c.035.245.342.438.701.438.369 0 .675-.193.72-.438L8.072.736C8.073.333 7.599 0 6.994 0zM1.375 3.366c-.35-.201-.876.044-1.174.561-.307.517-.254 1.096.105 1.298L4.04 6.969c.237.079.553-.088.737-.403.184-.316.166-.675-.027-.833L1.375 3.366zm12.326 1.859c.35-.202.403-.78.105-1.298-.307-.517-.833-.762-1.184-.56L9.247 5.732c-.192.158-.21.517-.026.833.184.315.5.482.736.403l3.744-1.744zM.306 10.475c-.36.21-.412.79-.105 1.307.298.517.824.762 1.174.56L4.75 9.977c.193-.167.21-.526.027-.842-.184-.315-.5-.482-.737-.394L.306 10.476zM9.957 8.74c-.236-.088-.552.079-.736.394-.184.316-.166.675.026.842l3.375 2.367c.351.201.877-.044 1.184-.561.298-.518.245-1.096-.105-1.306L9.957 8.74zm-2.954 1.683c-.368 0-.675.184-.71.43l-.368 4.11c0 .413.473.746 1.07.746.604 0 1.078-.333 1.078-.745l-.36-4.112c-.044-.245-.35-.43-.71-.43z"/>
		</g>
		<g id="icn-18-store">
			<path xmlns="http://www.w3.org/2000/svg" fill-rule="evenodd" d="M6.988 0L2.837 3H0v11h6v-4h2v4h6V3h-2.507L6.988 0zM.999 4h2.162l3.85-2.781 4.178 2.78h1.81v9.011H9V9H5v4.01H.999V4z"/>
		</g>
		<g id="icn-18-thumbs-down">
			<path xmlns="http://www.w3.org/2000/svg" fill-rule="evenodd" d="M13.258,6.9379 C13.112,7.0779 12.787,7.1119 12.632,7.1029 L7.898,7.1029 C7.738,7.1029 7.589,7.1789 7.495,7.3069 C7.401,7.4359 7.373,7.6009 7.421,7.7529 C7.424,7.7609 7.671,8.5629 7.946,10.4599 C8.004,10.8659 8.087,11.8159 7.598,11.8909 C7.557,11.8969 7.502,11.8979 7.449,11.8969 C7.435,11.8129 7.42,11.7279 7.402,11.6339 C7.372,11.4689 7.336,11.2719 7.29,10.9749 C6.717,7.3749 3.396,6.5759 3.019,6.4969 C2.651,6.4189 1.648,6.4399 1,6.4639 L1,2.1379 C1.822,2.0969 3.411,1.9969 3.962,1.8129 L4.411,1.6619 C5.018,1.4569 6.279,1.0299 6.467,1.0009 L10.524,1.0009 C11.195,1.0009 11.195,1.1769 11.195,1.3639 C11.195,1.6779 10.811,1.7449 10.739,1.7549 C10.475,1.7849 10.281,2.0149 10.296,2.2799 C10.311,2.5439 10.53,2.7509 10.795,2.7509 L11.498,2.7509 C11.635,2.7509 12.083,2.7809 12.083,3.1639 C12.083,3.4589 11.447,3.5539 11.444,3.5539 C11.179,3.5829 10.984,3.8129 10.999,4.0789 C11.013,4.3439 11.232,4.5509 11.498,4.5509 L12.219,4.5509 C12.488,4.5579 12.625,4.6719 12.625,4.8899 C12.625,5.2259 12.176,5.2719 12.09,5.2779 C11.819,5.2919 11.608,5.5189 11.614,5.7899 C11.621,6.0619 11.843,6.2779 12.114,6.2779 L12.657,6.2779 C13.351,6.2779 13.351,6.4749 13.351,6.6659 C13.351,6.8279 13.301,6.8959 13.258,6.9379 M13.625,4.8899 C13.625,4.2919 13.315,3.9259 12.945,3.7309 C13.031,3.5709 13.083,3.3829 13.083,3.1639 C13.083,2.4549 12.644,2.0279 12.111,1.8499 C12.164,1.7079 12.195,1.5469 12.195,1.3639 C12.195,0.8549 11.978,0.0009 10.524,0.0009 L6.467,0.0009 C6.272,0.0009 5.883,0.1079 4.091,0.7139 L3.646,0.8649 C3.211,1.0099 1.474,1.1229 0.481,1.1599 C0.212,1.1699 0,1.3909 0,1.6599 L0,6.9859 C0,7.1229 0.056,7.2539 0.155,7.3479 C0.255,7.4429 0.385,7.4959 0.525,7.4849 C1.307,7.4459 2.536,7.4169 2.813,7.4749 C3.121,7.5399 5.835,8.1929 6.302,11.1309 C6.35,11.4379 6.387,11.6429 6.419,11.8129 C6.449,11.9799 6.473,12.1109 6.496,12.2809 C6.517,12.4489 6.607,12.6009 6.748,12.7069 C6.958,12.8639 7.253,12.8979 7.469,12.8979 C7.613,12.8979 7.722,12.8839 7.748,12.8789 C8.206,12.8099 9.238,12.4209 8.935,10.3169 C8.786,9.2859 8.644,8.5629 8.54,8.1029 L12.602,8.1019 C12.687,8.1079 13.442,8.1379 13.942,7.6669 C14.21,7.4149 14.351,7.0689 14.351,6.6659 C14.351,6.2729 14.225,5.6809 13.527,5.4149 C13.589,5.2649 13.625,5.0899 13.625,4.8899 Z"/>
		</g>
		<g id="icn-18-thumbs-up">
			<path xmlns="http://www.w3.org/2000/svg" fill-rule="evenodd" d="M13.258,7.13701221 C13.112,7.27701221 12.787,7.31101221 12.632,7.30201221 L7.898,7.30201221 C7.738,7.30201221 7.589,7.37801221 7.495,7.50601221 C7.401,7.63501221 7.373,7.80001221 7.421,7.95201221 C7.424,7.96001221 7.671,8.76201221 7.946,10.6590122 C8.004,11.0650122 8.087,12.0150122 7.598,12.0900122 C7.557,12.0960122 7.502,12.0970122 7.449,12.0960122 C7.435,12.0120122 7.42,11.9270122 7.402,11.8330122 C7.372,11.6680122 7.336,11.4710122 7.29,11.1740122 C6.717,7.57401221 3.396,6.77501221 3.019,6.69601221 C2.651,6.61801221 1.648,6.63901221 1,6.66301221 L1,2.33701221 C1.822,2.29601221 3.411,2.19601221 3.962,2.01201221 L4.411,1.86101221 C5.018,1.65601221 6.279,1.22901221 6.467,1.20001221 L10.524,1.20001221 C11.195,1.20001221 11.195,1.37601221 11.195,1.56301221 C11.195,1.87701221 10.811,1.94401221 10.739,1.95401221 C10.475,1.98401221 10.281,2.21401221 10.296,2.47901221 C10.311,2.74301221 10.53,2.95001221 10.795,2.95001221 L11.498,2.95001221 C11.635,2.95001221 12.083,2.98001221 12.083,3.36301221 C12.083,3.65801221 11.447,3.75301221 11.444,3.75301221 C11.179,3.78201221 10.984,4.01201221 10.999,4.27801221 C11.013,4.54301221 11.232,4.75001221 11.498,4.75001221 L12.219,4.75001221 C12.488,4.75701221 12.625,4.87101221 12.625,5.08901221 C12.625,5.42501221 12.176,5.47101221 12.09,5.47701221 C11.819,5.49101221 11.608,5.71801221 11.614,5.98901221 C11.621,6.26101221 11.843,6.47701221 12.114,6.47701221 L12.657,6.47701221 C13.351,6.47701221 13.351,6.67401221 13.351,6.86501221 C13.351,7.02701221 13.301,7.09501221 13.258,7.13701221 M13.625,5.08901221 C13.625,4.49101221 13.315,4.12501221 12.945,3.93001221 C13.031,3.77001221 13.083,3.58201221 13.083,3.36301221 C13.083,2.65401221 12.644,2.22701221 12.111,2.04901221 C12.164,1.90701221 12.195,1.74601221 12.195,1.56301221 C12.195,1.05401221 11.978,0.200012207 10.524,0.200012207 L6.467,0.200012207 C6.272,0.200012207 5.883,0.307012207 4.091,0.913012207 L3.646,1.06401221 C3.211,1.20901221 1.474,1.32201221 0.481,1.35901221 C0.212,1.36901221 0,1.59001221 0,1.85901221 L0,7.18501221 C0,7.32201221 0.056,7.45301221 0.155,7.54701221 C0.255,7.64201221 0.385,7.69501221 0.525,7.68401221 C1.307,7.64501221 2.536,7.61601221 2.813,7.67401221 C3.121,7.73901221 5.835,8.39201221 6.302,11.3300122 C6.35,11.6370122 6.387,11.8420122 6.419,12.0120122 C6.449,12.1790122 6.473,12.3100122 6.496,12.4800122 C6.517,12.6480122 6.607,12.8000122 6.748,12.9060122 C6.958,13.0630122 7.253,13.0970122 7.469,13.0970122 C7.613,13.0970122 7.722,13.0830122 7.748,13.0780122 C8.206,13.0090122 9.238,12.6200122 8.935,10.5160122 C8.786,9.48501221 8.644,8.76201221 8.54,8.30201221 L12.602,8.30101221 C12.687,8.30701221 13.442,8.33701221 13.942,7.86601221 C14.21,7.61401221 14.351,7.26801221 14.351,6.86501221 C14.351,6.47201221 14.225,5.88001221 13.527,5.61401221 C13.589,5.46401221 13.625,5.28901221 13.625,5.08901221 Z" transform="matrix(1 0 0 -1 0 13.297)"/>
		</g>
		<g id="icn-18-trash">
			<path xmlns="http://www.w3.org/2000/svg" fill-rule="evenodd" d="M4,0.0002 L4,2.0052 L0,2.0052 L0,3.0052 L2,3.0052 L2,14.0012 L12,14.0012 L12,3.0052 L14.001,3.0052 L14.001,2.0052 L10,2.0052 L10,0.0002 L4,0.0002 Z M5.001,2.0012 L9.001,2.0012 L9.001,1.0012 L5.001,1.0012 L5.001,2.0012 Z M3,13.0012 L11,13.0012 L11,3.0052 L3,3.0052 L3,13.0012 Z M8.003,11.0012 L9.003,11.0012 L9.003,5.0022 L8.003,5.0022 L8.003,11.0012 Z M4.997,11.0012 L5.997,11.0012 L5.997,5.0022 L4.997,5.0022 L4.997,11.0012 Z"/>
		</g>
		<g id="icn-18-up-arrow">
			<path xmlns="http://www.w3.org/2000/svg" fill-rule="evenodd" d="M14.64625,0.14625 L7.99925,6.79225 L1.35325,0.14625 C1.15825,-0.04875 0.84125,-0.04875 0.64625,0.14625 C0.45125,0.34125 0.45125,0.65825 0.64625,0.85325 L7.64625,7.85325 C7.74425,7.95125 7.87225,8.00025 7.99925,8.00025 C8.12725,8.00025 8.25525,7.95125 8.35325,7.85325 L15.35325,0.85325 C15.54825,0.65825 15.54825,0.34125 15.35325,0.14625 C15.15825,-0.04875 14.84125,-0.04875 14.64625,0.14625 Z" transform="matrix(1 0 0 -1 0 8)"/>
		</g>
		<g id="icn-18-user">
			<path d="M4.5 5.5C4.5 3.019 6.519 1 9 1s4.5 2.019 4.5 4.5a4.518 4.518 0 0 1-1.821 3.657A4.508 4.508 0 0 1 15 13.5V17H3v-3.5a4.509 4.509 0 0 1 3.364-4.355A4.496 4.496 0 0 1 4.5 5.5zM4 16h10v-2.5c0-1.93-1.57-3.5-3.5-3.5h-3C5.57 10 4 11.57 4 13.5V16zM9 2C7.07 2 5.5 3.57 5.5 5.5S7.07 9 9 9s3.5-1.57 3.5-3.5S11.02 2 9.091 2H9z"/>
		</g>
		<g id="icn-18-walmart-associate">
			<path xmlns="http://www.w3.org/2000/svg" fill-rule="evenodd" d="M10.5,4.5 C10.5,6.008 9.748,7.337 8.607,8.154 C10.552,8.651 12,10.403 12,12.5 L12,16 L0,16 L0,12.5 C0,10.403 1.448,8.651 3.393,8.154 C2.252,7.337 1.5,6.008 1.5,4.5 C1.5,2.019 3.519,0 6,0 C8.481,0 10.5,2.019 10.5,4.5 Z M11,15 L11,12.5 C11,10.57 9.43,9 7.5,9 L4.5,9 C2.57,9 1,10.57 1,12.5 L1,15 L11,15 Z M6,1 C4.07,1 2.5,2.57 2.5,4.5 C2.5,6.43 4.07,8 6,8 C7.93,8 9.5,6.43 9.5,4.5 C9.5,2.57 7.93,1 6,1 Z M3.5867,12.4446 L5.0347,13.4606 C5.0777,13.4956 5.1007,13.5466 5.1027,13.6146 C5.1057,13.6826 5.0867,13.7496 5.0467,13.8176 C5.0057,13.8856 4.9557,13.9356 4.8957,13.9686 C4.8357,14.0006 4.7807,14.0086 4.7307,13.9906 L3.1277,13.2426 C3.0497,13.1996 3.0067,13.1236 2.9977,13.0146 C2.9887,12.9056 3.0177,12.7956 3.0827,12.6856 C3.1457,12.5746 3.2257,12.4966 3.3257,12.4506 C3.4247,12.4036 3.5117,12.4016 3.5867,12.4446 Z M5.9981,11 C6.1261,11 6.2351,11.031 6.3251,11.092 C6.4161,11.154 6.4611,11.228 6.4611,11.316 L6.3061,13.08 C6.2961,13.133 6.2621,13.178 6.2031,13.214 C6.1441,13.25 6.0761,13.268 5.9981,13.268 C5.9201,13.268 5.8521,13.25 5.7951,13.214 C5.7371,13.178 5.7051,13.133 5.6971,13.08 L5.5391,11.316 C5.5391,11.228 5.5841,11.154 5.6731,11.092 C5.7621,11.031 5.8701,11 5.9981,11 Z M8.6747,12.4503 C8.7737,12.4963 8.8557,12.5753 8.9207,12.6853 C8.9837,12.7953 9.0107,12.9053 9.0017,13.0143 C8.9937,13.1233 8.9507,13.1993 8.8757,13.2423 L7.2697,13.9913 C7.2197,14.0083 7.1647,14.0013 7.1037,13.9683 C7.0437,13.9353 6.9937,13.8853 6.9537,13.8173 C6.9137,13.7503 6.8947,13.6823 6.8967,13.6143 C6.8997,13.5473 6.9227,13.4953 6.9647,13.4603 L8.4137,12.4443 C8.4887,12.4023 8.5757,12.4043 8.6747,12.4503 Z"/>
		</g>
		<g id="icn-18-zoom-in">
			<path xmlns="http://www.w3.org/2000/svg" fill-rule="evenodd" d="M13.85,13.143 C14.045,13.338 14.045,13.654 13.85,13.85 C13.752,13.947 13.624,13.996 13.496,13.996 C13.368,13.996 13.24,13.947 13.143,13.85 L9.872,10.579 C8.827,11.464 7.477,12 6,12 C2.686,12 0,9.314 0,6 C0,2.686 2.686,0 6,0 C9.314,0 12,2.686 12,6 C12,7.477 11.464,8.827 10.579,9.872 L13.85,13.143 Z M6,11 C8.761,11 11,8.761 11,6 C11,3.239 8.761,1 6,1 C3.239,1 1,3.239 1,6 C1,8.761 3.239,11 6,11 Z M8,5.4961 C8.276,5.4961 8.5,5.7201 8.5,5.9961 C8.5,6.2721 8.276,6.4961 8,6.4961 L6.5,6.4961 L6.5,7.9961 C6.5,8.2721 6.276,8.4961 6,8.4961 C5.724,8.4961 5.5,8.2721 5.5,7.9961 L5.5,6.4961 L4,6.4961 C3.724,6.4961 3.5,6.2721 3.5,5.9961 C3.5,5.7201 3.724,5.4961 4,5.4961 L5.5,5.4961 L5.5,3.9961 C5.5,3.7201 5.724,3.4961 6,3.4961 C6.276,3.4961 6.5,3.7201 6.5,3.9961 L6.5,5.4961 L8,5.4961 Z"/>
		</g>
		<g id="icn-18-zoom-out">
			<path xmlns="http://www.w3.org/2000/svg" fill-rule="evenodd" d="M13.8537108,13.1467562 C14.0487631,13.3418119 14.0487631,13.6579023 13.8537108,13.8539583 C13.7556846,13.950986 13.6276503,14 13.499616,14 C13.3715817,14 13.2435474,13.950986 13.1465214,13.8539583 L9.87464499,10.5820234 C8.82936501,11.4672764 7.4790033,12.0034296 6.00160757,12.0034296 C2.68671966,12.0034296 0,9.3166619 0,6.00171478 C0,2.68676765 2.68671966,0 6.00160757,0 C9.31649549,0 12.0032151,2.68676765 12.0032151,6.00171478 C12.0032151,7.4791369 11.4670715,8.82952272 10.5818344,9.87482138 L13.8537108,13.1467562 Z M6.00160757,11.0031438 C8.76334733,11.0031438 11.0029472,8.76350386 11.0029472,6.00171478 C11.0029472,3.23992569 8.76334733,1.0002858 6.00160757,1.0002858 C3.23986782,1.0002858 1.00026793,3.23992569 1.00026793,6.00171478 C1.00026793,8.76350386 3.23986782,11.0031438 6.00160757,11.0031438 Z M8,5.5 C8.276,5.5 8.5,5.724 8.5,6 C8.5,6.276 8.276,6.5 8,6.5 L4,6.5 C3.724,6.5 3.5,6.276 3.5,6 C3.5,5.724 3.724,5.5 4,5.5 L8,5.5 Z"/>
		</g>
		<g id="icn-18-curbside">
			<defs>
				<path id="prefix__a" d="M0 0L18.667 0 18.667 18.667 0 18.667z"/>
			</defs>
			<g fill="none" transform="translate(2.667 2.667)">
				<path fill="#000" d="M12 12c1.47 0 2.667 1.196 2.667 2.667 0 1.47-1.196 2.666-2.667 2.666-1.47 0-2.666-1.196-2.666-2.666C9.334 13.196 10.53 12 12 12M2 8h5.334c.148 0 .284-.053.396-.137.004-.002.009-.002.013-.003.003-.001.003-.004.005-.005.063-.052.118-.115.16-.187.014-.025.019-.053.03-.08.018-.04.04-.079.049-.124l1.227-6.13h9.453V0h-10c-.317 0-.59.224-.653.536L6.966 5.775 3.194.924C3.02.7 2.724.611 2.456.701l-2 .667c-.35.116-.538.493-.422.843.117.35.494.538.844.421l1.552-.517 3.54 4.552H2c-1.102 0-2 .897-2 2v6.666C0 15.701.3 16 .667 16h7.58c.552 1.55 2.017 2.667 3.753 2.667 1.736 0 3.202-1.118 3.754-2.667h2.913v-1.333H16c0-2.206-1.794-4-4-4-2.205 0-4 1.794-4 4H1.334v-6c0-.368.3-.667.666-.667"/>
			</g>
		</g>
		<g id="icn-18-delivery">
			<path xmlns="http://www.w3.org/2000/svg" fill-rule="evenodd" d="M16 12h-1.439A1.907 1.907 0 0 0 13 11.183c-.646 0-1.215.325-1.561.817H6.722c-.347-.595-.986-1-1.722-1s-1.375.405-1.722 1H2V8h1.5a.5.5 0 0 0 .485-.379L4.891 4H9v4h5.5c.827 0 1.5.673 1.5 1.5V12zm-3 2a.909.909 0 1 1 .001-1.817A.909.909 0 0 1 13 14zm-8 0a1.001 1.001 0 0 1 0-2 1.001 1.001 0 0 1 0 2zm7.859-7H10V4h2.109l.75 3zM14.5 7h-.609l-.906-3.621A.5.5 0 0 0 12.5 3h-8a.5.5 0 0 0-.485.379L3.109 7H1.5a.5.5 0 0 0-.5.5v5a.5.5 0 0 0 .5.5H3c0 1.103.897 2 2 2s2-.897 2-2h4.102c-.002.031-.01.061-.01.092A1.91 1.91 0 0 0 13 15a1.91 1.91 0 0 0 1.908-1.908c0-.031-.008-.061-.01-.092H16.5a.5.5 0 0 0 .5-.5v-3C17 8.122 15.879 7 14.5 7z"/>
		</g>
		<g id="icn-18-in-home">
			<path xmlns="http://www.w3.org/2000/svg" fill-rule="evenodd" d="M4 16h10V8H4v8zm0-9h10V2H4v5zm10.5-6h-11a.5.5 0 0 0-.5.5v15a.5.5 0 0 0 .5.5h11a.5.5 0 0 0 .5-.5v-15a.5.5 0 0 0-.5-.5z"/>
			<path xmlns="http://www.w3.org/2000/svg" fill-rule="evenodd" d="M5.5 6a.5.5 0 0 0 .5-.5v-1a.5.5 0 0 0-1 0v1a.5.5 0 0 0 .5.5M5.5 9a.5.5 0 0 0-.5.5v1a.5.5 0 0 0 1 0v-1a.5.5 0 0 0-.5-.5"/>
		</g>
		<g id="icn-24-account">
			<path d="M4.8564,10.3358 C3.7134,9.2428 3.0004,7.7028 3.0004,5.9998 C3.0004,2.6908 5.6914,-0.0002 9.0004,-0.0002 C12.3094,-0.0002 15.0004,2.6908 15.0004,5.9998 C15.0004,7.7028 14.2874,9.2428 13.1444,10.3358 C15.9584,11.2438 18.0004,13.8888 18.0004,16.9998 L18.0004,21.9998 L0.0004,21.9998 L0.0004,16.9998 C0.0004,13.8888 2.0424,11.2438 4.8564,10.3358 L4.8564,10.3358 Z M2.0004,19.9998 L16.0004,19.9998 L16.0004,16.9998 C16.0004,14.2428 13.7574,11.9998 11.0004,11.9998 L7.0004,11.9998 C4.2434,11.9998 2.0004,14.2428 2.0004,16.9998 L2.0004,19.9998 Z M9.0004,1.9998 C6.7944,1.9998 5.0004,3.7938 5.0004,5.9998 C5.0004,8.2058 6.7944,9.9998 9.0004,9.9998 C11.2064,9.9998 13.0004,8.2058 13.0004,5.9998 C13.0004,3.7938 11.2064,1.9998 9.0004,1.9998 L9.0004,1.9998 Z"/>
		</g>
		<g id="icn-24-bag">
			<path d="M18,17.5 C18,17.775 17.775,18 17.5,18 L2.5,18 C2.225,18 2,17.775 2,17.5 L2,8 L5,8 L15,8 L18,8 L18,17.5 Z M7,5 C7,3.346 8.346,2 10,2 C11.654,2 13,3.346 13,5 L13,6 L7,6 L7,5 Z M15,6 L15,5 C15,2.243 12.757,0 10,0 C7.243,0 5,2.243 5,5 L5,6 L0,6 L0,17.5 C0,18.879 1.121,20 2.5,20 L17.5,20 C18.879,20 20,18.879 20,17.5 L20,6 L15,6 Z"/>
		</g>
		<g id="icn-24-cart">
			<path d="M3,2 L1,2 C0.447,2 0,1.553 0,1 C0,0.447 0.447,0 1,0 L5,0 L5,5 L20,5 L20,15 L3,15 L3,2 Z M5,13 L18,13 L18,7 L5,7 L5,13 Z M8,17.999 C8,19.103 7.104,19.999 6,19.999 C4.896,19.999 4,19.103 4,17.999 C4,16.895 4.896,15.999 6,15.999 C7.104,15.999 8,16.895 8,17.999 L8,17.999 Z M15,17.999 C15,16.895 15.896,15.999 17,15.999 C18.104,15.999 19,16.895 19,17.999 C19,19.103 18.104,19.999 17,19.999 C15.896,19.999 15,19.103 15,17.999 Z"/>
		</g>
		<g id="icn-24-fav-2-filled">
			<path d="M17.59.207c-2.334-.622-4.86.188-6.57 2.04-1.575-1.79-4.024-2.582-6.392-2C2.41.794.03 2.765 0 6.654c-.027 3.759 3.056 5.998 5.307 7.633l.41.298c2.252 1.664 4.618 3.143 4.971 3.295l.276.12.29-.09c.462-.14 3.965-2.38 5.623-3.593 2.294-1.672 5.15-3.75 5.121-7.711C21.972 3.332 20.324.939 17.59.207"/>
		</g>
		<g id="icn-24-fav-2">
			<path d="M7.91 4.718c-.382 0-.769.048-1.151.145-1.64.423-3.402 1.97-3.426 5.04-.02 2.998 2.343 4.791 4.242 6.23l.348.265c1.906 1.474 3.816 2.712 4.086 2.844h.003c.364-.152 3.123-1.972 4.57-3.08 1.925-1.465 4.106-3.124 4.083-6.3-.017-2.59-1.233-4.473-3.25-5.038-1.723-.472-3.596.138-4.898 1.607l-.512.58-.498-.592C10.583 5.322 9.27 4.718 7.91 4.718zm4.022 15.949l-.47-.21c-.394-.178-2.453-1.536-4.353-3.003l-.342-.26C4.859 15.745 1.975 13.56 2 9.892c.03-3.824 2.305-5.772 4.427-6.319 2.012-.512 4.097.044 5.598 1.458 1.606-1.475 3.751-2.045 5.747-1.49 2.624.734 4.204 3.092 4.227 6.308.028 3.843-2.652 5.881-4.608 7.37-1.198.917-4.396 3.107-4.97 3.29l-.489.157z" transform="translate(-2 -3)"/>
		</g>
		<g id="driver-missing">
			<defs>
				<circle id="a" cx="38" cy="38" r="38"/>
			</defs>
			<g fill="none" fill-rule="evenodd">
				<mask id="b" fill="#fff">
					<use xlink:href="#a"/>
				</mask>
				<use fill="#FFF" xlink:href="#a"/>
				<g fill="#ADADAD" mask="url(#b)">
					<g transform="translate(9.952 17.19)">
						<circle cx="28.048" cy="17.19" r="17.19"/>
						<path d="M42.604 29.857c8.089 4.92 13.491 13.82 13.491 23.98 0 15.49-12.557 28.047-28.047 28.047S0 69.327 0 53.836c0-10.16 5.402-19.058 13.491-23.98 3.486 4.152 8.713 6.79 14.557 6.79a18.957 18.957 0 0 0 14.395-6.6z"/>
					</g>
				</g>
			</g>
		</g>
		<g id="icn-car-unlimited" fill="none" fill-rule="evenodd" stroke="#000">
			<circle cx="6" cy="14" r="3" stroke-width="2"/>
			<circle cx="21" cy="14" r="3" stroke-width="2"/>
			<path d="M18 13H9"/>
			<path stroke-linecap="round" stroke-linejoin="round" d="M24 13h3V8l-1-1H1L0 8v5h3M1 0h18l4 7"/>
			<path d="M4 7l4-7"/>
			<path stroke-linecap="round" stroke-linejoin="round" d="M13 0l4 7"/>
			<path stroke-linecap="round" d="M0 4h5"/>
		</g>
		<g id="express-delivery">
			<path d="M9.816 8.713a5.333 5.333 0 11-1.15 7.293.562.562 0 00-.922.643 6.457 6.457 0 101.39-8.83.562.562 0 00.682.894z"/>
			<path d="M6.627 11.103h2.965a.562.562 0 000-1.125H6.627a.562.562 0 100 1.125zM3.662 13.08h3.953a.562.562 0 100-1.125H3.662a.562.562 0 100 1.124zM2.673 15.412h4.942a.562.562 0 000-1.124H2.673a.562.562 0 100 1.124zM14.078 10.086a.562.562 0 00-1.121-.08l-.2 2.829a.562.562 0 00.115.383l1.527 1.98a.562.562 0 00.89-.687l-1.396-1.81.185-2.615zM13.88 7.324V4.937h-1.125v2.387z"/>
			<path d="M11.188 5.5h4.258a.562.562 0 100-1.125h-4.258a.562.562 0 100 1.124z"/>
		</g>
		<g id="walmart-grocery">
			<path fill="#F3F3F3" d="M-570-678h2705v3464H-570z"/>
			<path fill="#FFF" d="M-28-11h768v36H-28z"/>
			<path fill="#FFF" d="M-28-11h160v36H-28z"/>
			<text fill="#041E42" font-family="Bogle-Bold, Bogle" font-size="14" font-weight="bold" transform="translate(-28 -11)">
				<tspan x="28" y="25">Walmart Grocery</tspan>
			</text>
		</g>
		<g id="walmart-com">
			<path fill="#F3F3F3" d="M-742-677h2705v3464H-742z"/>
			<path fill="#FFF" d="M-200-10h768v36h-768z"/>
			<path fill="#FFF" d="M-40-10h160v36H-40z"/>
			<text fill="#041E42" font-family="Bogle-Bold, Bogle" font-size="14" font-weight="bold" transform="translate(-200 -10)">
				<tspan x="200" y="25">Walmart.com</tspan>
			</text>
		</g>
		<g id="walmart-spark-grocery">
			<path fill="#F3F3F3" d="M-133-2509h2705V955H-133z"/>
			<path fill="#FFF" d="M-23-10h160v36H-23z"/>
			<g fill-rule="nonzero">
				<g fill="#041E42">
					<path d="M71.352 2.171c1.448 0 2.496.496 3.467 1.334.114.114.133.285.02.4-.134.133-.287.266-.4.4-.134.152-.21.133-.382-.02-.724-.647-1.752-1.123-2.724-1.123-2.266 0-3.98 1.886-3.98 4.114 0 2.21 1.714 4.134 3.98 4.134 1.581 0 2.572-.61 2.572-.61v-2h-1.638A.26.26 0 0 1 72 8.533V8a.26.26 0 0 1 .267-.267h2.476c.152 0 .267.134.267.267v3.276c0 .076-.058.19-.115.229 0 0-1.466.952-3.543.952-2.857 0-5.162-2.267-5.162-5.143a5.138 5.138 0 0 1 5.162-5.143zM76.457 5.924c0-.153.095-.267.267-.267.419 0 .647.324.686.743.361-.381 1.009-.838 2.038-.838.495 0 1.314.076 1.162.533l-.191.515c-.076.209-.229.228-.38.152a1.58 1.58 0 0 0-.725-.19c-1.276 0-1.79.838-1.79.838v4.571a.334.334 0 0 1-.324.324h-.438a.334.334 0 0 1-.324-.324V5.924h.02zM84.114 5.581c1.829 0 3.315 1.58 3.315 3.429 0 1.885-1.486 3.466-3.315 3.466-1.828 0-3.314-1.58-3.314-3.466 0-1.867 1.486-3.429 3.314-3.429zm0 5.943c1.296 0 2.267-1.143 2.267-2.514 0-1.353-.952-2.477-2.267-2.477-1.295 0-2.266 1.124-2.266 2.477 0 1.371.971 2.514 2.266 2.514zM91.638 5.581c.99 0 1.79.38 2.4 1.086.133.152.095.343-.057.476l-.229.21c-.21.19-.342.037-.476-.096-.457-.514-.99-.724-1.657-.724-1.257 0-2.267 1.124-2.267 2.496 0 1.41.99 2.495 2.21 2.495 1.01 0 1.428-.514 1.81-.953.19-.21.38-.152.552.039l.095.095c.152.152.21.285.095.457-.495.724-1.39 1.333-2.495 1.333-1.962 0-3.333-1.466-3.333-3.447 0-1.962 1.428-3.467 3.352-3.467zM98.057 5.581c1.733 0 2.99 1.276 2.99 3.01 0 .114-.018.285-.037.4a.31.31 0 0 1-.305.285h-4.8c.038 1.105.952 2.267 2.152 2.267.876 0 1.41-.305 1.79-.553.23-.152.324-.209.496.039l.171.247c.134.21.19.267-.057.457-.4.324-1.276.762-2.419.762-2 0-3.2-1.58-3.2-3.466.02-1.867 1.22-3.448 3.22-3.448zm1.924 2.838c-.038-.971-.8-1.886-1.924-1.886-1.124 0-2 .857-2.133 1.886h4.057zM102.171 5.924c0-.153.096-.267.267-.267.42 0 .648.324.686.743.362-.381 1.01-.838 2.038-.838.495 0 1.314.076 1.162.533l-.19.515c-.077.209-.23.228-.382.152a1.58 1.58 0 0 0-.723-.19c-1.277 0-1.79.838-1.79.838v4.571a.334.334 0 0 1-.325.324h-.438a.334.334 0 0 1-.324-.324V5.924h.02zM107.962 15.333l1.238-2.952-2.438-6.305c-.095-.21 0-.362.267-.362h.61c.132 0 .247.076.285.19l1.866 5.258h.02l2.228-5.257a.293.293 0 0 1 .286-.19h.533c.267 0 .362.152.267.38l-4.134 9.448c-.038.095-.171.21-.285.21h-.457c-.286-.02-.4-.191-.286-.42z"/>
				</g>
				<path fill="#041E42" d="M37.962 8.324c0-1.524-.648-2.857-2.838-2.857-1.124 0-2.02.323-2.514.59l.361 1.22c.439-.287 1.162-.515 1.829-.515 1.105 0 1.295.628 1.295 1.028v.096c-2.419 0-3.962.838-3.962 2.552 0 1.048.781 2.02 2.134 2.02.838 0 1.543-.344 1.943-.877h.038s.285 1.162 1.81.724c-.077-.476-.115-.99-.115-1.62V8.325h.019zm-1.829 1.6c0 .133-.019.247-.038.362-.133.457-.628.857-1.219.857-.495 0-.895-.286-.895-.895 0-.915 1.01-1.181 2.171-1.162v.838h-.019zM2.153 3.39c.19.953.723 3.696.723 3.696.229 1.124.438 2.304.59 3.238h.02c.152-.99.38-1.943.647-3.105L5.03 3.39h1.98l.839 3.943c.228 1.105.4 1.943.533 2.953H8.4c.152-1.029.343-1.905.571-3.029l.8-3.867h1.905l-2.362 8.934c-1.504.324-2.076-.267-2.285-1.238l-.61-2.781c-.21-1.01-.362-1.715-.476-2.743h-.02c-.152 1.01-.323 1.733-.57 2.724l-.991 4.038c-1.543.305-2.057-.153-2.362-1.372C1.752 9.905.152 3.41.152 3.41h2v-.02zm14.933 4.934c0-1.524-.648-2.857-2.838-2.857-1.124 0-2.02.323-2.515.59l.362 1.22c.438-.287 1.162-.515 1.829-.515 1.105 0 1.295.628 1.295 1.028v.096c-2.419 0-3.962.838-3.962 2.552 0 1.048.781 2.02 2.133 2.02.839 0 1.543-.344 1.962-.877h.038s.286 1.162 1.81.724c-.076-.476-.114-.99-.114-1.62V8.325zm-1.81 1.6c0 .133-.019.247-.038.362-.133.457-.628.857-1.219.857-.495 0-.895-.286-.895-.895 0-.915 1.01-1.181 2.171-1.162v.838h-.019zm4.838 2.4h-1.81V3.39h1.81v8.934zM45.638 3.39v2.115h1.581v1.714h-1.58v2.514c0 .82.209 1.22.818 1.22.286 0 .495-.039.686-.077l.019 1.41c-.248.095-.781.19-1.314.19-.629 0-1.162-.228-1.467-.552-.362-.381-.533-1.029-.533-1.924V3.41h1.79v-.02zM40.8 5.62v1.257h.057c.343-.971 1.124-1.41 1.829-1.41.171 0 .266.02.419.039v1.752c-.172-.019-.324-.038-.534-.038-.78 0-1.333.457-1.485 1.181-.038.152-.038.305-.038.495v3.429H39.18V5.619H40.8zm-17.676 0v.914h.019c.305-.495.819-1.066 1.962-1.066.876 0 1.562.476 1.847 1.2h.02c.247-.362.533-.648.857-.838.38-.229.8-.362 1.333-.362 1.2 0 2.248.819 2.248 2.914v3.943H29.58V8.648c0-1.048-.362-1.677-1.105-1.677-.552 0-.952.362-1.086.82a1.686 1.686 0 0 0-.076.552v3.98h-1.828V8.496c0-.895-.343-1.524-1.086-1.524-.59 0-.952.458-1.105.858a1.761 1.761 0 0 0-.076.552v3.943H21.39V5.619h1.734z"/>
				<path fill="#FEC223" d="M56.324 4.914L55.962.895c0-.4.457-.724 1.048-.724.59 0 1.047.324 1.047.724l-.362 4.02c-.038.247-.343.437-.705.437-.342 0-.628-.19-.666-.438m-2.21 2.076l-3.657-1.714c-.343-.19-.4-.762-.095-1.276.286-.514.8-.743 1.162-.552l3.314 2.323c.19.153.21.515.02.82-.191.323-.515.495-.744.4m5.105-1.2l3.314-2.324c.343-.19.857.038 1.162.552.286.514.248 1.067-.095 1.276L59.943 7.01c-.229.076-.533-.077-.724-.381-.21-.343-.19-.686 0-.839m-2.21 4.591c.362 0 .648.19.705.419l.362 4.019c0 .4-.457.724-1.047.724-.59 0-1.048-.324-1.048-.724l.362-4.019c.019-.248.305-.419.667-.419m2.19-1.257c.171-.305.495-.476.724-.381l3.657 1.695c.343.19.4.762.095 1.276-.286.515-.819.743-1.162.553L59.2 9.943c-.171-.172-.19-.514 0-.82m-4.362 0c.172.306.172.667-.019.82l-3.314 2.324c-.343.19-.857-.038-1.162-.553-.286-.514-.248-1.066.095-1.276l3.657-1.695c.248-.095.572.057.743.38"/>
			</g>
		</g>
		<g id="walmart-spark-com">
			<defs>
				<path id="a" d="M.185.118h10.029V7.12H.185z"/>
			</defs>
			<g>
				<path fill="#F3F3F3" d="M-302-677h2705v3464H-302z"/>
				<path fill="#FFF" d="M-32-10h160v36H-32z"/>
				<path fill="#041E42" d="M71.893 5.607c1.024 0 1.855.401 2.492 1.128.134.163.104.356-.059.49l-.237.222c-.223.193-.356.044-.49-.104-.475-.534-1.024-.742-1.72-.742-1.306 0-2.345 1.158-2.345 2.582 0 1.454 1.024 2.596 2.3 2.596 1.038 0 1.483-.534 1.869-.98.193-.222.386-.162.579.03l.089.09c.148.148.207.296.089.474-.52.757-1.44 1.38-2.582 1.38-2.032 0-3.456-1.513-3.456-3.575 0-2.018 1.483-3.59 3.471-3.59m6.765 6.171c1.35 0 2.344-1.187 2.344-2.611 0-1.394-.994-2.567-2.344-2.567-1.35 0-2.359 1.173-2.359 2.567 0 1.424 1.009 2.61 2.36 2.61m0-6.17c1.898 0 3.44 1.631 3.44 3.56 0 1.958-1.542 3.605-3.44 3.605-1.9 0-3.443-1.647-3.443-3.605 0-1.929 1.543-3.56 3.442-3.56"/>
				<g transform="translate(83.16 5.49)">
					<mask id="b" fill="#fff">
						<use xlink:href="#a"/>
					</mask>
					<path fill="#041E42" d="M.185.474C.185.311.29.207.452.207c.43 0 .668.327.712.772a2.971 2.971 0 012.122-.86c1.024 0 1.572.37 2.017 1.082.09-.059 1.069-1.083 2.448-1.083 1.988 0 2.463 1.29 2.463 3.056v3.62a.33.33 0 01-.327.326h-.445a.33.33 0 01-.326-.326v-3.62c0-1.275-.415-2.062-1.454-2.062-1.112 0-1.736.727-1.988.935.06.297.09.771.09 1.127v3.62a.33.33 0 01-.327.326h-.445a.34.34 0 01-.326-.326v-3.62c0-1.305-.43-2.062-1.543-2.062-1.217 0-1.84.95-1.84.95v4.732a.34.34 0 01-.326.326H.512a.33.33 0 01-.327-.326V.474z" mask="url(#b)"/>
				</g>
				<path fill="#041E42" d="M23.822 5.653v.945h.028c.32-.506.85-1.102 2.027-1.102.915 0 1.618.494 1.917 1.244h.028a2.93 2.93 0 01.88-.867c.392-.24.825-.377 1.374-.377 1.238 0 2.336.855 2.336 3.016v4.097h-1.89V8.798c0-1.096-.371-1.73-1.145-1.73-.567 0-.979.381-1.134.848a1.939 1.939 0 00-.079.564v4.13h-1.888V8.644c0-.931-.357-1.576-1.12-1.576-.61 0-.993.48-1.15.891a1.625 1.625 0 00-.088.57v4.08h-1.89V5.652h1.794zm18.34 0v1.312h.054c.345-1.002 1.169-1.47 1.893-1.47.182 0 .281.014.427.043V7.36c-.174-.025-.335-.05-.56-.05-.819 0-1.39.477-1.533 1.224-.03.154-.042.321-.042.513v3.562h-1.94V5.653h1.702zm5.008-2.305v2.19h1.638v1.773H47.17v2.613c0 .846.215 1.256.855 1.256.302 0 .523-.038.715-.084l.024 1.469c-.258.096-.805.201-1.361.201-.654 0-1.2-.228-1.531-.58-.379-.404-.557-1.063-.557-2.005V3.348h1.855zM18.83 12.61h1.88V3.35h-1.88v9.26zm-3.133-2.485a1.3 1.3 0 01-.047.377c-.145.482-.645.89-1.269.89-.52 0-.933-.296-.933-.921 0-.955 1.051-1.22 2.249-1.214v.868zm1.878-1.665c0-1.577-.673-2.963-2.948-2.963-1.17 0-2.096.328-2.602.62l.37 1.267c.463-.292 1.2-.533 1.898-.533 1.155-.003 1.343.653 1.343 1.074v.1c-2.517-.004-4.107.867-4.107 2.642 0 1.085.81 2.1 2.217 2.1.867 0 1.59-.345 2.025-.9h.043s.287 1.203 1.872.743c-.083-.5-.11-1.033-.11-1.676V8.46zM2.081 3.35c.193.98.746 3.826.746 3.826.231 1.17.445 2.396.606 3.366h.028c.157-1.03.403-2.006.667-3.215l.93-3.978h2.058l.87 4.081c.228 1.136.41 2.01.553 3.066h.028c.156-1.067.36-1.977.585-3.142l.835-4.005h1.975L9.516 12.61c-1.559.342-2.156-.285-2.37-1.28-.215-.997-.632-2.893-.632-2.893-.215-1.038-.382-1.771-.5-2.837h-.029c-.168 1.056-.342 1.795-.602 2.833L4.356 12.61c-1.591.317-2.143-.152-2.45-1.429C1.645 10.086 0 3.348 0 3.348h2.08zm35.247 6.775c0 .129-.011.261-.047.377-.145.482-.644.89-1.269.89-.52 0-.933-.296-.933-.921 0-.955 1.051-1.22 2.25-1.214v.868zm1.88-1.665c0-1.577-.674-2.963-2.95-2.963-1.168 0-2.096.328-2.602.62l.37 1.267c.463-.292 1.2-.533 1.898-.533 1.154-.003 1.343.653 1.343 1.074v.1c-2.516-.004-4.107.867-4.107 2.642 0 1.085.81 2.1 2.219 2.1.865 0 1.59-.345 2.023-.9h.043s.287 1.203 1.872.743c-.083-.5-.11-1.033-.11-1.676V8.46z"/>
				<path fill="#FEC223" d="M56.718 9.283c.187.324.173.686-.024.85l-3.432 2.405c-.357.205-.892-.044-1.196-.569-.304-.526-.25-1.114.106-1.32l3.8-1.769c.237-.089.56.079.746.403m4.515 0c.187-.324.509-.492.747-.403l3.8 1.768c.358.207.41.795.107 1.321-.306.525-.841.774-1.197.569l-3.432-2.405c-.196-.164-.211-.527-.025-.85m-2.258 1.304c.374 0 .681.193.723.445l.37 4.175c0 .413-.484.751-1.092.751-.607 0-1.09-.338-1.09-.751l.368-4.175c.04-.252.349-.445.721-.445m2.283-4.759l3.432-2.407c.356-.206.891.042 1.197.569.302.526.251 1.113-.107 1.32l-3.8 1.769c-.238.088-.56-.08-.747-.404-.186-.323-.171-.686.025-.847m-5.287 1.25l-3.8-1.768c-.355-.207-.41-.794-.105-1.32.304-.527.839-.775 1.196-.57l3.432 2.408c.197.16.21.524.024.847-.186.324-.509.492-.747.404m2.283-2.152L57.886.752c0-.413.483-.752 1.09-.752.608 0 1.091.339 1.091.752l-.369 4.175c-.042.251-.349.445-.723.445-.372 0-.68-.194-.72-.445"/>
			</g>
		</g>
		<g id="contact-less-delivery">
			<g fill="none" fill-rule="evenodd" transform="translate(-2 -1) translate(2.667 1.333)">
				<rect width="12" height="20" x="3.333" y=".667" stroke="#000" stroke-width="1.333" rx=".667"/>
				<path fill="#000" d="M6 12c.368 0 .667-.299.667-.667V10c0-.368-.299-.667-.667-.667-.368 0-.667.299-.667.667v1.333c0 .368.299.667.667.667"/>
				<rect width="18.667" height="1.333" y="20" fill="#000" rx=".667"/>
			</g>
		</g>
		<g id="ebt-icon">
			<defs>
				<linearGradient id="c" x1="50%" x2="50%" y1="0%" y2="100%">
					<stop offset="0%" stop-color="#FFF" stop-opacity=".8"/>
					<stop offset="5%" stop-color="#FFF" stop-opacity=".4"/>
					<stop offset="20%" stop-color="#FFF" stop-opacity="0"/>
					<stop offset="100%" stop-color="#FFF" stop-opacity="0"/>
				</linearGradient>
				<linearGradient id="d" x1="50%" x2="50%" y1="0%" y2="100%">
					<stop offset="0%" stop-opacity="0"/>
					<stop offset="80%" stop-opacity="0"/>
					<stop offset="95.026%" stop-opacity=".02"/>
					<stop offset="100%" stop-opacity=".04"/>
				</linearGradient>
				<rect id="b" width="412" height="265" rx="2"/>
				<filter id="a" width="102.9%" height="104.5%" x="-1.5%" y="-1.5%" filterUnits="objectBoundingBox">
					<feOffset dy="2" in="SourceAlpha" result="shadowOffsetOuter1"/>
					<feGaussianBlur in="shadowOffsetOuter1" result="shadowBlurOuter1" stdDeviation="1"/>
					<feComposite in="shadowBlurOuter1" in2="SourceAlpha" operator="out" result="shadowBlurOuter1"/>
					<feColorMatrix in="shadowBlurOuter1" result="shadowMatrixOuter1" values="0 0 0 0 0 0 0 0 0 0 0 0 0 0 0 0 0 0 0.24 0"/>
					<feOffset in="SourceAlpha" result="shadowOffsetOuter2"/>
					<feGaussianBlur in="shadowOffsetOuter2" result="shadowBlurOuter2" stdDeviation="1"/>
					<feComposite in="shadowBlurOuter2" in2="SourceAlpha" operator="out" result="shadowBlurOuter2"/>
					<feColorMatrix in="shadowBlurOuter2" result="shadowMatrixOuter2" values="0 0 0 0 0 0 0 0 0 0 0 0 0 0 0 0 0 0 0.12 0"/>
					<feMerge>
						<feMergeNode in="shadowMatrixOuter1"/>
						<feMergeNode in="shadowMatrixOuter2"/>
					</feMerge>
				</filter>
			</defs>
			<g fill="none" fill-rule="evenodd">
				<g transform="translate(-77 -116)">
					<use fill="#000" filter="url(#a)" xlink:href="#b"/>
					<use fill="#FFF" xlink:href="#b"/>
					<rect width="411.5" height="264.5" x=".25" y=".25" stroke="url(#c)" stroke-width=".5" rx="2"/>
					<rect width="411.5" height="264.5" x=".25" y=".25" stroke="url(#d)" stroke-width=".5" rx="2"/>
				</g>
				<g>
					<rect width="24" height="16" y="4" fill="#417505" rx="2"/>
					<text fill="#FFF" font-family="HelveticaNeue-CondensedBlack, Helvetica Neue" font-size="11" font-style="condensed" font-weight="700">
						<tspan x="3.5" y="16">EBT</tspan>
					</text>
					<path d="M0 0h24v24H0z"/>
				</g>
			</g>
		</g>
		<g fill="none" id="walmart-logo">
			<path fill="#041E42" d="M34.164 8.18v1.304h.039c.458-.698 1.22-1.52 2.907-1.52 1.313 0 2.32.684 2.751 1.716h.04c.368-.522.79-.917 1.264-1.196.56-.332 1.184-.522 1.97-.522 1.776 0 3.35 1.182 3.35 4.164v5.655h-2.71v-5.26c0-1.511-.533-2.385-1.642-2.385-.812 0-1.403.525-1.627 1.17-.078.223-.114.526-.114.78v5.698h-2.71v-5.477c0-1.283-.512-2.174-1.606-2.174-.875 0-1.424.663-1.648 1.231-.096.243-.126.522-.126.785v5.632h-2.713v-9.6h2.575zm26.305 0v1.812h.075c.498-1.384 1.679-2.027 2.716-2.027.26 0 .404.02.614.06v2.515c-.249-.035-.48-.07-.803-.07-1.175 0-1.993.658-2.2 1.687-.045.214-.06.445-.06.71v4.917H58.03V8.18h2.44zM67.65 5v3.022H70v2.446h-2.35v3.607c0 1.168.309 1.733 1.226 1.733.432 0 .75-.052 1.025-.118l.036 2.027c-.369.133-1.154.277-1.951.277-.938 0-1.72-.314-2.197-.801-.545-.557-.797-1.468-.797-2.766V5h2.658zM29.701 17.78h-2.697V5H29.7v12.78zm-7.193-3.428c0 .176-.015.36-.066.52-.21.665-.926 1.228-1.819 1.228-.746 0-1.34-.407-1.34-1.27 0-1.317 1.51-1.683 3.228-1.675v1.197h-.003zm2.695-2.298c0-2.178-.966-4.09-4.23-4.09-1.675 0-3.005.453-3.73.857l.53 1.748c.662-.404 1.72-.736 2.721-.736 1.657-.003 1.927.903 1.927 1.482v.139c-3.611-.006-5.892 1.197-5.892 3.648 0 1.496 1.16 2.898 3.18 2.898 1.244 0 2.28-.476 2.904-1.24h.06s.414 1.658 2.685 1.024c-.12-.692-.158-1.428-.158-2.313v-3.417h.003zM2.979 5c.279 1.352 1.07 5.28 1.07 5.28.333 1.615.638 3.308.87 4.646h.041c.225-1.422.579-2.769.956-4.435L7.25 5h2.952l1.247 5.632c.327 1.566.587 2.774.794 4.23h.04c.224-1.47.518-2.728.838-4.337L14.321 5h2.831l-3.51 12.78c-2.235.47-3.092-.394-3.398-1.767-.306-1.375-.905-3.991-.905-3.991-.309-1.433-.549-2.443-.716-3.913H8.58c-.24 1.456-.492 2.477-.863 3.91l-1.472 5.765c-2.284.438-3.075-.21-3.513-1.973C2.356 14.303 0 5.003 0 5.003h2.98V5zm50.555 9.352c0 .176-.015.36-.066.52-.21.665-.926 1.228-1.82 1.228-.745 0-1.339-.407-1.339-1.27 0-1.317 1.51-1.683 3.228-1.675v1.197h-.003zm2.694-2.298c0-2.178-.965-4.09-4.229-4.09-1.675 0-3.006.453-3.73.857l.53 1.748c.662-.404 1.72-.736 2.721-.736 1.654-.003 1.927.903 1.927 1.482v.139c-3.608-.006-5.89 1.197-5.89 3.648 0 1.496 1.164 2.898 3.18 2.898 1.242 0 2.281-.476 2.902-1.24h.063s.413 1.658 2.685 1.024c-.12-.692-.159-1.428-.159-2.313v-3.417z"/>
			<path fill="#FFC124" d="M80.934 13.379c.266.467.248.988-.036 1.226l-4.905 3.466c-.51.298-1.276-.064-1.709-.82-.436-.758-.358-1.604.153-1.903l5.43-2.547c.341-.133.801.111 1.067.578m6.456 0c.269-.467.726-.708 1.067-.581l5.434 2.547c.51.298.585 1.145.152 1.903-.436.756-1.204 1.115-1.712.82l-4.905-3.466c-.28-.235-.302-.76-.036-1.223m-3.23 1.88c.535 0 .975.276 1.034.64l.53 6.017c0 .596-.691 1.084-1.56 1.084-.867 0-1.56-.488-1.56-1.084l.526-6.017c.06-.364.499-.64 1.03-.64m3.266-6.86l4.905-3.47c.508-.298 1.276.06 1.712.82.433.758.359 1.604-.152 1.903l-5.434 2.55c-.34.127-.801-.114-1.067-.581-.266-.467-.245-.988.036-1.223m-7.558 1.804l-5.431-2.55c-.508-.299-.586-1.145-.153-1.904.433-.758 1.201-1.117 1.709-.819l4.905 3.47c.284.231.302.755.036 1.222-.266.467-.726.708-1.066.581m3.262-3.101l-.526-6.017c0-.596.69-1.084 1.56-1.084.869 0 1.56.488 1.56 1.084l-.53 6.017c-.06.36-.499.64-1.033.64-.532 0-.971-.28-1.031-.64m12.24 10.945v-.15h.134c.045 0 .075.03.075.075 0 .042-.03.075-.075.075h-.134zm-.11.275c0 .015.011.03.029.03h.057c.015 0 .03-.015.03-.03v-.172h.092l.075.18c.006.013.015.022.027.022h.069c.02 0 .035-.021.026-.043l-.08-.168c.045-.015.113-.06.113-.169 0-.114-.092-.18-.185-.18h-.224c-.015 0-.03.015-.03.03v.5zm-.243-.25c0-.244.197-.443.44-.443.241 0 .438.196.438.443 0 .243-.194.442-.439.442s-.439-.199-.439-.442m-.104 0c0 .3.242.548.543.548.299 0 .544-.247.544-.548 0-.302-.245-.548-.544-.548-.301 0-.543.246-.543.548"/>
    </g>
	</defs>
</svg>
